<?xml version="1.0" encoding="UTF-8" standalone="no"?>
<!-- Uploaded to: SVG Repo, www.svgrepo.com, Generator: SVG Repo Mixer Tools -->

<svg
   xmlns:dc="http://purl.org/dc/elements/1.1/"
   xmlns:cc="http://creativecommons.org/ns#"
   xmlns:rdf="http://www.w3.org/1999/02/22-rdf-syntax-ns#"
   xmlns:svg="http://www.w3.org/2000/svg"
   xmlns="http://www.w3.org/2000/svg"
   xmlns:sodipodi="http://sodipodi.sourceforge.net/DTD/sodipodi-0.dtd"
   xmlns:inkscape="http://www.inkscape.org/namespaces/inkscape"
   height="26"
   width="26"
   version="1.1"
   id="Layer_1"
   viewBox="0 0 16.64 16.64"
   xml:space="preserve"
   sodipodi:docname="audience.svg"
   style="fill:#000000"
   inkscape:version="0.92.4 (5da689c313, 2019-01-14)"><metadata
   id="metadata23"><rdf:RDF><cc:Work
       rdf:about=""><dc:format>image/svg+xml</dc:format><dc:type
         rdf:resource="http://purl.org/dc/dcmitype/StillImage" /><dc:title></dc:title></cc:Work></rdf:RDF></metadata><defs
   id="defs21" /><sodipodi:namedview
   pagecolor="#ffffff"
   bordercolor="#666666"
   borderopacity="1"
   objecttolerance="10"
   gridtolerance="10"
   guidetolerance="10"
   inkscape:pageopacity="0"
   inkscape:pageshadow="2"
   inkscape:window-width="2560"
   inkscape:window-height="1376"
   id="namedview19"
   showgrid="false"
   inkscape:zoom="37.76"
   inkscape:cx="20.752749"
   inkscape:cy="15.897192"
   inkscape:window-x="0"
   inkscape:window-y="27"
   inkscape:window-maximized="1"
   inkscape:current-layer="Layer_1" />
<g
   id="g16"
   transform="matrix(0.0325,0,0,0.0325,0,-9.675e-4)">
	<g
   id="g14">
		<g
   id="g12">
			<path
   d="m 369.179,177.853 c 25.26,0 45.81,-20.55 45.81,-45.811 0,-25.261 -20.55,-45.811 -45.81,-45.811 -25.26,0 -45.811,20.55 -45.811,45.811 0,25.261 20.55,45.811 45.811,45.811 z m 0,-75.453 c 16.344,0 29.642,13.298 29.642,29.642 0,16.344 -13.298,29.642 -29.642,29.642 -16.344,0 -29.642,-13.298 -29.642,-29.642 0,-16.344 13.298,-29.642 29.642,-29.642 z"
   id="path2"
   inkscape:connector-curvature="0" />
			<path
   d="m 460.8,296.421 h -18.863 v -31.327 c 0,-40.119 -32.639,-72.758 -72.758,-72.758 -7.275,0 -14.432,1.069 -21.321,3.182 -17.353,-29.43 -49.379,-49.221 -85.946,-49.221 h -11.823 c -37.255,0 -69.799,20.544 -86.912,50.894 -0.464,-0.28 -0.96,-0.517 -1.491,-0.705 -7.781,-2.754 -15.941,-4.151 -24.255,-4.151 -40.119,0 -72.758,32.639 -72.758,72.758 v 31.328 H 51.2 c -28.231,0 -51.2,22.969 -51.2,51.2 0,28.231 22.969,51.2 51.2,51.2 h 94.892 c 18.256,39.034 56.704,66.803 101.823,69.787 v 35.307 c 0,4.466 3.619,8.084 8.084,8.084 4.466,0 8.084,-3.618 8.084,-8.084 v -35.307 c 45.12,-2.985 83.566,-30.753 101.823,-69.787 H 460.8 c 28.231,0 51.2,-22.969 51.2,-51.2 0,-28.231 -22.969,-51.2 -51.2,-51.2 z M 166.554,246.003 c -0.001,-46.062 37.472,-83.536 83.535,-83.536 h 11.823 c 46.062,0 83.536,37.475 83.536,83.537 v 19.829 C 324.965,243.45 296.215,228.761 264.085,226.635 v -35.309 c 0,-4.466 -3.619,-8.084 -8.084,-8.084 -4.466,0 -8.084,3.618 -8.084,8.084 v 35.308 c -32.131,2.126 -60.881,16.816 -81.363,39.198 z m 194.232,93.533 h -21.647 v 10e-4 c -3.823,-39.62 -35.434,-71.231 -75.055,-75.055 v -21.648 c 51.518,3.937 92.766,45.184 96.702,96.702 z m -112.87,-96.701 v 21.648 c -39.62,3.823 -71.231,35.434 -75.055,75.055 h -21.647 v -0.001 c 3.937,-51.518 45.184,-92.766 96.702,-96.702 z M 51.2,382.653 c -19.317,0 -35.032,-15.715 -35.032,-35.032 0,-19.317 15.715,-35.032 35.032,-35.032 h 13.474 v 26.947 H 53.895 c -4.466,0 -8.084,3.618 -8.084,8.084 0,4.466 3.618,8.084 8.084,8.084 h 81.118 c 0.615,9.305 2.284,18.327 4.89,26.947 H 51.2 Z m 99.184,-94.554 c -8.704,15.383 -14.141,32.845 -15.372,51.439 h -54.17 v -74.443 c 0,-31.203 25.387,-56.589 56.589,-56.589 6.471,0 12.816,1.085 18.861,3.224 0.048,0.017 0.097,0.027 0.146,0.043 -3.916,10.68 -6.055,22.21 -6.055,34.231 v 42.095 z m 97.533,164.31 c -51.519,-3.938 -92.766,-45.185 -96.703,-96.703 h 21.648 c 3.823,39.62 35.434,71.231 75.055,75.055 z M 256,398.821 c -4.466,0 -8.084,3.618 -8.084,8.084 v 7.582 c -30.694,-3.69 -55.092,-28.088 -58.782,-58.782 h 4.887 c 4.466,0 8.084,-3.618 8.084,-8.084 0,-4.466 -3.619,-8.084 -8.084,-8.084 h -4.887 c 3.69,-30.694 28.088,-55.092 58.782,-58.782 v 7.582 c 0,4.466 3.619,8.084 8.084,8.084 4.466,0 8.084,-3.619 8.084,-8.084 v -7.582 c 30.694,3.69 55.092,28.088 58.782,58.782 h -4.887 c -4.466,0 -8.084,3.618 -8.084,8.084 0,4.466 3.619,8.084 8.084,8.084 h 4.887 c -3.69,30.694 -28.088,55.092 -58.782,58.782 v -7.582 c 0,-4.465 -3.618,-8.084 -8.084,-8.084 z m 8.084,53.586 v -21.648 c 39.62,-3.823 71.231,-35.434 75.055,-75.055 h 21.648 c -3.937,51.519 -45.185,92.767 -96.703,96.703 z m 97.531,-164.309 v -42.095 c 0,-12.576 -2.347,-24.612 -6.614,-35.703 4.608,-1.19 9.358,-1.794 14.178,-1.794 31.203,0 56.589,25.387 56.589,56.589 v 74.442 h -48.781 c -1.23,-18.595 -6.668,-36.056 -15.372,-51.439 z m 99.185,94.555 h -88.703 c 2.606,-8.62 4.275,-17.642 4.89,-26.947 h 81.118 c 4.466,0 8.084,-3.618 8.084,-8.084 0,-4.466 -3.618,-8.084 -8.084,-8.084 H 441.937 V 312.591 H 460.8 c 19.317,0 35.032,15.715 35.032,35.032 0,19.315 -15.715,35.03 -35.032,35.03 z"
   id="path4"
   inkscape:connector-curvature="0" />
			<path
   d="m 256,129.955 c 35.828,0 64.978,-29.15 64.978,-64.978 C 320.978,29.149 291.828,0 256,0 c -35.828,0 -64.978,29.15 -64.978,64.978 0,35.828 29.15,64.977 64.978,64.977 z m 0,-113.787 c 26.914,0 48.809,21.895 48.809,48.809 0,26.914 -21.895,48.81 -48.809,48.81 -26.914,0 -48.809,-21.895 -48.809,-48.809 0,-26.914 21.895,-48.81 48.809,-48.81 z"
   id="path6"
   inkscape:connector-curvature="0" />
			<path
   d="m 285.642,347.621 c 0,-16.344 -13.298,-29.642 -29.642,-29.642 -16.344,0 -29.642,13.298 -29.642,29.642 0,16.344 13.298,29.642 29.642,29.642 16.344,0 29.642,-13.298 29.642,-29.642 z M 256,361.095 c -7.43,0 -13.474,-6.044 -13.474,-13.474 0,-7.43 6.044,-13.474 13.474,-13.474 7.43,0 13.474,6.044 13.474,13.474 0,7.43 -6.044,13.474 -13.474,13.474 z"
   id="path8"
   inkscape:connector-curvature="0" />
			<path
   d="m 137.432,177.853 c 25.26,0 45.811,-20.55 45.811,-45.811 0,-25.261 -20.55,-45.811 -45.811,-45.811 -25.26,0 -45.81,20.55 -45.81,45.811 0,25.261 20.549,45.811 45.81,45.811 z m 0,-75.453 c 16.344,0 29.642,13.298 29.642,29.642 0,16.344 -13.298,29.642 -29.642,29.642 -16.344,0 -29.642,-13.298 -29.642,-29.642 0,-16.344 13.297,-29.642 29.642,-29.642 z"
   id="path10"
   inkscape:connector-curvature="0" />
		</g>
	</g>
</g>
</svg>